<svg width="3027" height="588" viewBox="0 0 3027 588" fill="none" xmlns="http://www.w3.org/2000/svg">
<path d="M1021.24 113L878.742 255L1030.24 469H952.742L835.742 298.5L784.742 349.5V469H722.742V113H784.742V274.5L942.242 113H1021.24ZM1032.03 211H1094.03L1160.03 409.5L1223.53 211H1282.53L1190.03 469.5H1126.03L1032.03 211ZM1436.8 203.5C1475.8 203.5 1507.3 216 1530.8 240.5C1553.8 265.5 1565.8 298.5 1565.8 340C1565.8 382 1553.8 415.5 1530.8 440C1507.8 465 1476.3 477 1436.8 477C1396.3 477 1364.3 465 1340.8 440C1316.8 415.5 1305.3 382 1305.3 340C1305.3 298.5 1316.8 265.5 1340.8 240.5C1364.8 216 1396.8 203.5 1436.8 203.5ZM1435.8 248.5C1412.8 248.5 1395.3 257 1382.3 273C1369.3 289.5 1362.8 312 1362.8 340C1362.8 369 1369.3 392 1382.3 408C1395.3 424.5 1413.3 432.5 1436.3 432.5C1458.3 432.5 1475.8 424.5 1488.8 408C1501.8 391.5 1508.3 368.5 1508.3 339.5C1508.3 311.5 1501.8 289 1488.8 273C1475.8 257 1458.3 248.5 1435.8 248.5ZM1668.19 211V249C1688.69 219 1717.19 204 1753.69 204C1782.69 204 1804.69 212 1819.19 228C1833.69 244 1841.19 267 1841.19 297V469H1784.19V319C1784.19 309 1783.69 300.5 1782.69 293.5C1781.69 286.5 1779.19 279.5 1776.19 272.5C1773.19 265.5 1768.19 260.5 1761.19 257C1754.19 253.5 1745.19 251.5 1734.19 251.5C1692.19 251.5 1671.19 278 1671.19 330V469H1614.19V211H1668.19Z" fill="white"/>
<path d="M2444.97 388.5C2438.47 416.5 2424.47 438.5 2403.47 454C2382.47 470 2356.97 477.5 2327.97 477.5C2288.97 477.5 2257.97 465 2234.97 440C2211.97 415 2200.97 382.5 2200.97 343C2200.97 303 2212.47 269.5 2235.97 243C2259.47 217 2289.47 203.5 2325.97 203.5C2363.47 203.5 2393.47 216.5 2415.47 242.5C2437.47 268.5 2448.47 303.5 2448.47 348V354H2257.97C2258.47 380 2264.97 400.5 2277.47 414.5C2289.47 428.5 2306.97 435.5 2328.97 435.5C2344.47 435.5 2356.97 432 2366.97 424.5C2376.97 417 2384.47 405 2390.47 388.5H2444.97ZM2391.47 316C2389.47 294.5 2382.97 277.5 2370.97 265C2358.97 252.5 2343.97 246 2325.47 246C2306.47 246 2291.47 252 2279.97 264C2268.47 276 2261.47 293.5 2258.97 316H2391.47ZM2725.8 371.5C2721.8 403.5 2708.8 428.5 2687.8 447.5C2666.3 466.5 2639.3 475.5 2607.3 475.5C2568.3 475.5 2537.8 463.5 2514.8 439C2491.8 414.5 2480.3 382.5 2480.3 342.5C2480.3 300 2491.8 266 2514.8 241C2537.8 216 2569.3 203 2608.8 203C2641.8 203 2668.3 211.5 2688.3 228C2708.3 245 2720.3 268 2723.8 297.5H2667.3C2663.8 281.5 2657.3 269 2647.3 260C2637.3 251.5 2624.3 247 2609.3 247C2587.3 247 2569.8 255.5 2557.3 272C2544.3 288.5 2538.3 311 2538.3 339.5C2538.3 368.5 2544.3 390.5 2556.3 406.5C2568.3 422.5 2585.3 430.5 2607.3 430.5C2624.3 430.5 2637.8 425.5 2648.8 415.5C2659.8 405.5 2666.8 390.5 2669.8 371.5H2725.8ZM2826.63 113V246.5C2845.63 218.5 2872.63 204.5 2908.13 204.5C2936.13 204.5 2957.63 212.5 2973.63 227.5C2989.13 242.5 2997.13 265 2997.13 294V469H2939.63V312.5C2939.63 293 2936.13 278 2929.13 267.5C2922.13 257.5 2909.13 252 2889.63 252C2867.63 252 2851.63 259.5 2841.63 273.5C2831.63 288 2826.63 307 2826.63 330.5V469H2770.13V113H2826.63Z" fill="white"/>
<mask id="mask0_299_30" style="mask-type:alpha" maskUnits="userSpaceOnUse" x="0" y="19" width="606" height="550">
<path d="M157.475 19L419.003 472.297L264.78 507.631L0 569L191.85 231.468L225.76 341.654L165.836 442.542L275.465 410.927L157.475 19Z" fill="#D9D9D9"/>
<path d="M301.478 41.3161L605.743 568.535H124.958L460.346 489.964L251.774 128.721L301.478 41.3161Z" fill="#D9D9D9"/>
</mask>
<g mask="url(#mask0_299_30)">
<path d="M155.629 11L179.129 21.5L431.629 475.5L190.129 543L-8.37109 590L155.629 11Z" fill="#FC6422"/>
<path d="M248.629 126.5L301.629 34.5L612.629 574L122.129 569L450.629 485.5L248.629 126.5Z" fill="white"/>
</g>
<path d="M2094.5 488C2108.17 488 2121 486.333 2133 483C2144.67 479.667 2155.5 475.333 2165.5 470V417C2156.17 423.667 2146.67 429.333 2137 434C2127 438.333 2116.5 440.5 2105.5 440.5C2086.17 440.5 2072 435.833 2063 426.5C2053.67 416.833 2049 401.167 2049 379.5V149.5H1993.5V383C1993.5 404 1996.5 421.333 2002.5 435C2008.5 448.667 2016.5 459.5 2026.5 467.5C2036.17 475.167 2047 480.5 2059 483.5C2070.67 486.5 2082.5 488 2094.5 488Z" fill="white"/>
<path d="M2049 198H2159.5L2102 241L2049 283V198Z" fill="white"/>
</svg>
